#!OML:ASF F:\VICON\USERDATA\INSTALL\rory3\rory3.ASF
:FULLY-SPECIFIED
:DEGREES
188
root 10.9445 17.6264 -7.25625 5.95801 -57.11 -4.06244
lowerback 7.56477 3.9723 3.15242
upperback 0.857642 5.545 0.485866
thorax -3.08842 2.71289 -1.80509
lowerneck -19.2169 -3.61652 -9.88484
upperneck 30.5851 -4.28879 6.37145
head 14.011 -2.24541 3.48996
rclavicle -4.71368e-014 -1.98785e-015
rhumerus -38.1252 -3.41373 -81.4508
rradius 27.8282
rwrist 7.24205
rhand -15.6004 11.1374
rfingers 7.12502
rthumb 10.5857 -18.576
lclavicle -4.71368e-014 -1.98785e-015
lhumerus -44.737 7.82591 77.9844
lradius 29.954
lwrist -6.91608
lhand -13.5581 24.5561
lfingers 7.12502
lthumb 12.5552 54.1588
rfemur 19.5135 2.8956 24.271
rtibia 14.3268
rfoot -7.26621 3.69553
rtoes -10.8066
lfemur -26.5571 -4.91722 -14.7106
ltibia 14.5947
lfoot -8.20957 5.45227
ltoes -17.6577
189
root 10.8374 17.6533 -7.14261 5.16565 -56.8622 -3.28148
lowerback 7.79944 3.87853 2.68075
upperback 0.765033 5.38979 0.40777
thorax -3.35886 2.63549 -1.63466
lowerneck -19.2986 -3.63639 -9.87579
upperneck 30.8605 -4.30465 6.29021
head 14.1495 -2.2681 3.4596
rclavicle -3.11346e-014 5.76476e-015
rhumerus -38.3572 -3.57496 -81.3276
rradius 27.7226
rwrist 7.41063
rhand -15.4401 11.2955
rfingers 7.12502
rthumb 10.7403 -18.41
lclavicle -3.11346e-014 5.76476e-015
lhumerus -44.805 7.97003 77.9694
lradius 29.8988
lwrist -6.99732
lhand -13.5698 24.729
lfingers 7.12502
lthumb 12.5439 54.3325
rfemur 19.4227 3.05115 23.85
rtibia 15.5011
rfoot -6.05125 3.69365
rtoes -10.5401
lfemur -25.9714 -4.2335 -15.6416
ltibia 14.5114
lfoot -7.92363 3.62928
ltoes -14.2319
190
root 10.7287 17.6744 -7.03055 4.34365 -56.5128 -2.52035
lowerback 7.92034 3.76409 2.25847
upperback 0.807375 5.20196 0.360854
thorax -3.42363 2.54686 -1.43918
lowerneck -19.2749 -3.66798 -10.0621
upperneck 30.8571 -4.30919 6.35337
head 14.1511 -2.28407 3.51711
rclavicle 7.70291e-014 2.38542e-015
rhumerus -38.4007 -3.87722 -81.0829
rradius 27.5855
rwrist 7.62679
rhand -15.1309 11.597
rfingers 7.12502
rthumb 11.0385 -18.0928
lclavicle 7.70291e-014 2.38542e-015
lhumerus -44.7432 8.213 77.976
lradius 29.9672
lwrist -7.03592
lhand -13.1691 24.9301
lfingers 7.12502
lthumb 12.9302 54.5095
rfemur 19.279 2.91449 23.3463
rtibia 16.827
rfoot -4.84608 3.84398
rtoes -9.85536
lfemur -25.322 -3.3771 -16.6287
ltibia 14.4811
lfoot -7.74334 1.67972
ltoes -13.1354
191
root 10.6209 17.6947 -6.92004 3.65092 -56.1223 -1.8689
lowerback 8.0363 3.66572 1.82119
upperback 0.808355 5.03553 0.352287
thorax -3.53033 2.46864 -1.19853
lowerneck -19.2134 -3.68178 -10.2351
upperneck 30.9086 -4.30646 6.43145
head 14.1675 -2.29557 3.58155
rclavicle -1.32937e-014 -7.95139e-016
rhumerus -38.5792 -4.04917 -80.8967
rradius 27.5705
rwrist 7.51373
rhand -14.9911 11.7391
rfingers 7.12502
rthumb 11.1733 -17.9434
lclavicle -1.32937e-014 -7.95139e-016
lhumerus -44.6724 8.27462 78.0926
lradius 30.0164
lwrist -6.8491
lhand -12.7784 25.0003
lfingers 7.12502
lthumb 13.3068 54.5555
rfemur 18.9912 2.61633 22.8304
rtibia 18.2609
rfoot -3.4345 4.29071
rtoes -8.92117
lfemur -24.7347 -2.47338 -17.5488
ltibia 14.494
lfoot -7.57971 0.112382
ltoes -14.7307
192
root 10.5143 17.7147 -6.80698 3.35421 -55.7498 -1.68612
lowerback 8.16081 3.60189 1.824
upperback 0.816604 4.94942 0.252357
thorax -3.58458 2.42435 -1.30242
lowerneck -19.2438 -3.75411 -10.1349
upperneck 30.9222 -4.45004 6.44251
head 14.1933 -2.34347 3.54307
rclavicle 7.00716e-014 -2.18663e-015
rhumerus -38.7917 -4.6665 -80.7738
rradius 27.674
rwrist 7.5586
rhand -14.882 11.7013
rfingers 7.12502
rthumb 11.2786 -17.9755
lclavicle 7.00716e-014 -2.18663e-015
lhumerus -44.4547 8.09613 78.0685
lradius 29.959
lwrist -6.87055
lhand -12.8572 24.6761
lfingers 7.12502
lthumb 13.2308 54.2363
rfemur 18.5974 2.45789 22.6616
rtibia 19.7496
rfoot -1.6913 4.6322
rtoes -7.57562
lfemur -24.2246 -2.06798 -17.9515
ltibia 14.5972
lfoot -7.28684 -1.00475
ltoes -13.9608
193
root 10.4041 17.7341 -6.68788 3.09817 -55.4709 -1.61899
lowerback 8.26382 3.46479 1.7661
upperback 0.846705 4.76375 0.270987
thorax -3.62299 2.33247 -1.23759
lowerneck -19.244 -3.71638 -9.97285
upperneck 30.8499 -4.37996 6.25009
head 14.1436 -2.31844 3.4459
rclavicle 2.10463e-014 -2.5842e-015
rhumerus -38.9507 -4.89767 -80.6563
rradius 27.7749
rwrist 7.55791
rhand -14.8358 11.462
rfingers 7.12502
rthumb 11.3232 -18.2124
lclavicle 2.10463e-014 -2.5842e-015
lhumerus -44.4102 8.39812 77.9241
lradius 29.9458
lwrist -7.05785
lhand -13.221 24.021
lfingers 7.12502
lthumb 12.8801 53.6036
rfemur 18.1977 2.38667 22.5438
rtibia 21.3176
rfoot 0.170409 4.93285
rtoes -5.65182
lfemur -23.632 -1.72599 -18.2332
ltibia 14.7187
lfoot -7.03798 -2.12017
ltoes -12.5796
